<?xml version="1.0" encoding="UTF-8"?>
<svg id="Layer_1" data-name="Layer 1" xmlns="http://www.w3.org/2000/svg" viewBox="0 0 175 175">
  <defs>
    <style>
      .cls-1 {
        fill: #11aa51;
      }

      .cls-1, .cls-2, .cls-3, .cls-4 {
        stroke-width: 0px;
      }

      .cls-2 {
        fill: #fff;
      }

      .cls-3 {
        fill: #139250;
      }

      .cls-4 {
        fill: #b5c4c0;
      }
    </style>
  </defs>
  <rect class="cls-2" x="0" y="0" width="175" height="175"/>
  <g>
    <path class="cls-1" d="m85.56,122.95c-19-13.81-24.67-38.84-13.91-61.15,2.99-6.2,7.04-11.56,12.16-16.13,1.45-1.29,2.97-2.54,3.1-4.7,0-.08.07-.22.1-.22.43.02.37.33.34.62-.04,2.32.53,4.61.56,6.89.17,16.51.15,33.02.5,49.53.13,5.88-.66,11.83-.41,17.77-1.93,2.1-.66,5.26-2.45,7.4Z"/>
    <path class="cls-3" d="m88.01,115.55c-.25-5.94.53-11.88.41-17.77-.35-16.51-.33-33.02-.5-49.53-.02-2.27-.6-4.57-.56-6.89,2.23,4.35,5.85,7.59,8.89,11.3,13.82,16.86,17.14,40.29,5.09,58.81-2.77,4.25-6.04,8.04-10.34,10.85-2.21-1.73-2.4-4.34-2.99-6.78Z"/>
    <path class="cls-4" d="m88.01,115.55c.59,2.44.78,5.05,2.99,6.78-.61,3.5-1.23,7-1.8,10.51-.14.85-.36,1.55-1.41,1.38-.89-.14-.92-.88-.94-1.56-.06-3.29-.68-6.5-1.29-9.71,1.79-2.14.52-5.3,2.45-7.4Z"/>
  </g>
</svg>