<?xml version="1.0" encoding="UTF-8"?>
<svg id="Layer_1" data-name="Layer 1" xmlns="http://www.w3.org/2000/svg" viewBox="0 0 175 175">
  <defs>
    <style>
      .cls-1 {
        fill: #047790;
      }

      .cls-1, .cls-2 {
        stroke-width: 0px;
      }

      .cls-2 {
        fill: #fff;
      }
    </style>
  </defs>
  <rect class="cls-1" x="0" y="0" width="175" height="175"/>
  <g>
    <path class="cls-2" d="m131.02,130.19c-.33-.03-.57-.24-.8-.45-2.75-2.54-5.85-4.53-9.29-6-2.58-1.1-4.83-2.73-6.98-4.49-1.65-1.35-2.77-3.12-3.58-5.08-.28-.68.25-.98.71-1.12,1.94-.61,3.82-1.41,5.84-1.74,2.1-.33,4.22-.47,6.35-.46.25,0,.5-.02.8-.03-.12-.63-.55-.98-.97-1.27-5.06-3.5-9.92-7.38-16.14-8.74-1.79-.39-3.13-1.39-3.97-3.04-.51-1.01-1.14-1.96-1.59-3-2.23-5.07-4.69-10.03-6.84-15.15-1.91-4.54-4.83-8.51-8.14-12.16-4.8-5.28-10.35-9.54-16.96-12.35-1.71-.73-3.47-1.19-5.34-1.24-1.24-.04-2.48-.15-3.73-.23-.82-.06-1.39-.59-1.96-1.09-2.57-2.25-5.66-3.48-8.84-4.53-.89-.29-1.81-.24-2.45.46-.69.75-.49,1.67-.11,2.56.41.95.96,1.79,1.59,2.6.52.67,1.03,1.35,1.58,2,2.98,3.5,4.42,7.71,5.7,12.02.6,2.01,1.4,3.94,2.5,5.74.52.85,1.09,1.65,1.85,2.31,1.14.99,1.54,2.2,1.07,3.66-.33,1.02-.67,2.04-1.02,3.06-2.15,6.21-1.96,12.34.71,18.36.53,1.2,1.21,2.32,2.74,2.68.37-.95.32-1.95.45-2.9.17-1.26.34-2.52.58-3.77.48-2.53,1.93-4.49,3.63-6.32.35.15.42.5.54.81,2.53,7.07,6.23,13.49,10.9,19.35.74.93,1.55,1.81,2.53,2.5.15.11.35.21.35.53-.44-.08-.77-.32-1.05-.59-2.34-2.39-5.09-4.33-7.44-6.71-2.07-2.09-3.6-4.49-4.77-7.16-.24-.56-.55-1.09-.92-1.82-.46,1.91-.69,3.63-.94,5.35-.04.28-.09.56-.15.83-.7,3.15-3.57,4.16-6.05,2.06-2.2-1.86-3.38-4.38-4.14-7.08-1.42-5.05-1.42-10.12.08-15.17.46-1.54.54-3.18,1.34-4.63.23-.42-.06-.8-.33-1.07-2.49-2.5-3.77-5.68-4.96-8.89-.75-2.01-1.51-4.02-2.03-6.11-.31-1.26-1.07-2.3-1.83-3.33-1.14-1.52-2.31-3.01-3.44-4.53-.9-1.21-1.67-2.49-1.99-3.99-.69-3.26,1.48-5.99,4.79-6.03,2.39-.03,4.55.82,6.65,1.81,1.82.86,3.57,1.84,5.05,3.24.56.53,1.22.75,2,.76,4.97.03,9.45,1.49,13.67,4.16,8.27,5.22,15.04,11.86,20.09,20.25,1.5,2.49,2.39,5.24,3.54,7.88,1.81,4.15,3.91,8.16,5.82,12.26.62,1.33,1.51,2.24,2.99,2.78,6.28,2.27,11.54,6.18,16.51,10.53,1.05.92,1.74,2.15,2.66,3.19.42.48.13.7-.39.88-2.1.73-4.28,1.04-6.48,1.28-1.92.21-3.7,1.05-5.66,1.25.08.64.47,1.04.85,1.44.97,1.02,2.15,1.76,3.37,2.42,3.37,1.82,6.18,4.27,8.53,7.28.29.38.65.72,1.01,1.03.7.6,1.26,1.29,1.55,2.18.06.17.08.4.34.42v.34Z"/>
    <path class="cls-2" d="m61.3,59.77c2.55-.82,3.68.14,4.62,2.04.43.88-.1,2.36-1.25,3.28-.72-2-1.92-3.69-3.37-5.32Z"/>
  </g>
</svg>