<?xml version="1.0" encoding="UTF-8"?>
<svg id="Layer_1" data-name="Layer 1" xmlns="http://www.w3.org/2000/svg" xmlns:xlink="http://www.w3.org/1999/xlink" viewBox="0 0 175 175">
  <defs>
    <style>
      .cls-1, .cls-2, .cls-3 {
        stroke-width: 0px;
      }

      .cls-2 {
        fill: none;
      }

      .cls-3 {
        fill: #fff;
      }

      .cls-4 {
        clip-path: url(#clippath);
      }
    </style>
    <clipPath id="clippath">
      <rect class="cls-2" x="0" y="0" width="175" height="175"/>
    </clipPath>
  </defs>
  <rect class="cls-3" x="0" y="0" width="175" height="175"/>
  <g class="cls-4">
    <path class="cls-1" d="m-2.82,97.01c0-6.22,0-12.44,0-18.67.17-.56.44-1.11.5-1.68C-.25,57.64-18.18,11.32-4.68-2.93c18.55-19.58,73.87-7.26,106.02-2.54C123.36-2.23,161.79-14.5,175,0c8.13,8.93,5.76,54.58,4.68,68.2-1.98,24.84,6.45,49.13-.53,72.57-2.65,8.9,4.27,29.36-2.64,37.05-4.88,5.44-25.83-5.17-32.18-1.19-.76-1.11.6.91,0,0-22.43-33.96-55.09-83.95-77.38-118.01-2.28-3.49-4.74-4.97-8.8-4.57-3.66.36-4.54,1.03-4.55,4.77-.03,12.44-.06,24.88-.07,37.32-.01,9.63-.09,19.26.09,28.89.03,1.43.99,3.59,2.11,4.11,5.03,2.32,8.67-.21,8.69-5.69.06-15.35.11-30.7.18-46.05,0-.81.11-1.62.16-2.45,21.65,30.86,50.84,71.93,72.44,102.73-.36.21-10.67-.56-11.47-.26-6.38,2.35-10.24-2.42-16.72-.4-3.88,1.21-8.55-.12-12.57.66-6.22,0-8.99,2.81-15.21,2.81-.55-.18-1.09-.45-1.66-.53-15.84-2.02-65.36,5.53-77.54-3.47-16.81-12.42-2.72-45.78-7.81-67.25-.87-3.67,3.67-8.54,2.94-12.25Zm122.39,20.06c.29-.48.46-.63.46-.79.01-20.37.03-40.74-.03-61.11,0-.89-.58-2.48-1.08-2.56-2.59-.42-5.74-.63-8.25-.15-.92.18-1.49,2.65-1.51,4.21-.17,14.05-.15,28.1-.11,42.14,0,1.14.26,2.44.85,3.38,3.09,4.92,6.32,9.75,9.67,14.87Z"/>
  </g>
</svg>