<?xml version="1.0" encoding="UTF-8"?>
<svg id="Layer_1" data-name="Layer 1" xmlns="http://www.w3.org/2000/svg" viewBox="0 0 175 175">
  <defs>
    <style>
      .cls-1 {
        fill: #38bdf8;
      }

      .cls-1, .cls-2 {
        stroke-width: 0px;
      }

      .cls-2 {
        fill: #fff;
      }
    </style>
  </defs>
  <rect class="cls-2" x="0" y="0" width="175" height="175"/>
  <g>
    <path class="cls-1" d="m88.63,74.85c-1.65-1.62-3.35-3.29-5.27-4.5-5.63-3.21-11.2-3.11-16.7.3-2.24,1.39-4.03,3.26-5.67,5.29-.14.18-.23.42-.52.53.34-1.6.84-3.11,1.41-4.6,1.31-3.4,3.08-6.52,5.6-9.19,3.76-3.99,8.44-6.21,13.79-7.12,2.76-.47,5.53-.55,8.32-.43,3.5.15,6.9.83,10.17,2.13,3.86,1.53,7.1,3.98,10.06,6.84,2,1.94,3.94,3.94,5.99,5.84,4.54,4.21,9.81,5.59,15.78,3.81,3.48-1.04,6.17-3.29,8.54-5.97.48-.55.94-1.12,1.53-1.81-.39,1.77-.9,3.34-1.5,4.87-1.26,3.21-2.94,6.18-5.27,8.75-3.39,3.73-7.6,6.02-12.5,7.08-5.54,1.19-11.08,1.14-16.58-.23-5.23-1.31-9.58-4.17-13.4-7.89-1.28-1.21-2.51-2.51-3.76-3.71Z"/>
    <path class="cls-1" d="m103.65,115.58c-3.79,2.5-8,3.76-12.5,4.15-3.96.35-7.88.2-11.76-.7-5.17-1.19-9.56-3.82-13.42-7.41-2.36-2.19-4.53-4.55-6.9-6.72-3.47-3.18-7.5-4.73-12.22-4.39-3.05.22-5.76,1.36-8.23,3.14-1.56,1.13-2.85,2.54-4.19,3.9-.37.38-.53.93-1.08,1.29.38-1.66.89-3.2,1.48-4.71,1.45-3.75,3.49-7.11,6.41-9.92,3.51-3.37,7.73-5.28,12.47-6.15,2.63-.48,5.29-.66,7.96-.56,4.57.17,8.98,1.02,13.08,3.16,2.66,1.38,5.06,3.13,7.22,5.2,2.2,2.11,4.35,4.27,6.56,6.38,3.31,3.17,7.22,4.84,11.85,4.68,3.73-.13,6.94-1.6,9.79-3.93,1.62-1.32,2.95-2.92,4.38-4.62-.94,3.94-2.41,7.51-4.54,10.79-1.81,2.44-3.83,4.78-6.37,6.42Z"/>
  </g>
</svg>